<svg width="390" height="400" viewBox="0 0 390 400" fill="none" xmlns="http://www.w3.org/2000/svg">
<mask id="mask0_5153_3429" style="mask-type:alpha" maskUnits="userSpaceOnUse" x="-129" y="-1" width="648" height="402">
<rect x="-4.92224" y="0.000152588" width="30.7694" height="30.7694" stroke="white" stroke-opacity="0.04" stroke-width="0.615388"/>
<rect x="25.8472" y="0.000152588" width="30.7694" height="30.7694" stroke="white" stroke-opacity="0.04" stroke-width="0.615388"/>
<rect x="56.6166" y="0.000152588" width="30.7694" height="30.7694" stroke="white" stroke-opacity="0.04" stroke-width="0.615388"/>
<rect x="87.386" y="0.000152588" width="30.7694" height="30.7694" stroke="white" stroke-opacity="0.04" stroke-width="0.615388"/>
<rect x="118.155" y="0.000152588" width="30.7694" height="30.7694" stroke="white" stroke-opacity="0.04" stroke-width="0.615388"/>
<rect x="148.925" y="0.000152588" width="30.7694" height="30.7694" stroke="white" stroke-opacity="0.04" stroke-width="0.615388"/>
<rect x="179.694" y="0.000152588" width="30.7694" height="30.7694" stroke="white" stroke-opacity="0.04" stroke-width="0.615388"/>
<rect x="210.464" y="0.000152588" width="30.7694" height="30.7694" stroke="white" stroke-opacity="0.04" stroke-width="0.615388"/>
<rect x="241.233" y="0.000152588" width="30.7694" height="30.7694" stroke="white" stroke-opacity="0.04" stroke-width="0.615388"/>
<rect x="272.002" y="0.000152588" width="30.7694" height="30.7694" stroke="white" stroke-opacity="0.04" stroke-width="0.615388"/>
<rect x="302.772" y="0.000152588" width="30.7694" height="30.7694" stroke="white" stroke-opacity="0.04" stroke-width="0.615388"/>
<rect x="333.541" y="0.000152588" width="30.7694" height="30.7694" stroke="white" stroke-opacity="0.04" stroke-width="0.615388"/>
<rect x="364.311" y="0.000152588" width="30.7694" height="30.7694" stroke="white" stroke-opacity="0.04" stroke-width="0.615388"/>
<rect x="-4.92224" y="30.7734" width="30.7694" height="30.7694" stroke="white" stroke-opacity="0.04" stroke-width="0.615388"/>
<rect x="25.8472" y="30.7734" width="30.7694" height="30.7694" stroke="white" stroke-opacity="0.04" stroke-width="0.615388"/>
<rect x="56.6166" y="30.7734" width="30.7694" height="30.7694" stroke="white" stroke-opacity="0.04" stroke-width="0.615388"/>
<rect x="87.386" y="30.7734" width="30.7694" height="30.7694" stroke="white" stroke-opacity="0.04" stroke-width="0.615388"/>
<rect x="118.155" y="30.7734" width="30.7694" height="30.7694" stroke="white" stroke-opacity="0.04" stroke-width="0.615388"/>
<rect x="148.925" y="30.7734" width="30.7694" height="30.7694" fill="white" fill-opacity="0.04" stroke="white" stroke-opacity="0.04" stroke-width="0.615388"/>
<rect x="179.694" y="30.7734" width="30.7694" height="30.7694" stroke="white" stroke-opacity="0.04" stroke-width="0.615388"/>
<rect x="210.464" y="30.7734" width="30.7694" height="30.7694" stroke="white" stroke-opacity="0.04" stroke-width="0.615388"/>
<rect x="241.233" y="30.7734" width="30.7694" height="30.7694" stroke="white" stroke-opacity="0.04" stroke-width="0.615388"/>
<rect x="272.002" y="30.7734" width="30.7694" height="30.7694" stroke="white" stroke-opacity="0.04" stroke-width="0.615388"/>
<rect x="302.772" y="30.7734" width="30.7694" height="30.7694" stroke="white" stroke-opacity="0.04" stroke-width="0.615388"/>
<rect x="333.541" y="30.7734" width="30.7694" height="30.7694" stroke="white" stroke-opacity="0.04" stroke-width="0.615388"/>
<rect x="364.311" y="30.7734" width="30.7694" height="30.7694" stroke="white" stroke-opacity="0.04" stroke-width="0.615388"/>
<rect x="-4.9223" y="61.5369" width="30.7694" height="30.7694" stroke="white" stroke-opacity="0.04" stroke-width="0.615388"/>
<rect x="25.8472" y="61.5369" width="30.7694" height="30.7694" stroke="white" stroke-opacity="0.04" stroke-width="0.615388"/>
<rect x="56.6166" y="61.5369" width="30.7694" height="30.7694" stroke="white" stroke-opacity="0.04" stroke-width="0.615388"/>
<rect x="87.386" y="61.5369" width="30.7694" height="30.7694" stroke="white" stroke-opacity="0.04" stroke-width="0.615388"/>
<rect x="118.155" y="61.5369" width="30.7694" height="30.7694" stroke="white" stroke-opacity="0.04" stroke-width="0.615388"/>
<rect x="148.925" y="61.5369" width="30.7694" height="30.7694" stroke="white" stroke-opacity="0.04" stroke-width="0.615388"/>
<rect x="179.694" y="61.5369" width="30.7694" height="30.7694" stroke="white" stroke-opacity="0.04" stroke-width="0.615388"/>
<rect x="210.464" y="61.5369" width="30.7694" height="30.7694" stroke="white" stroke-opacity="0.04" stroke-width="0.615388"/>
<rect x="241.233" y="61.5369" width="30.7694" height="30.7694" stroke="white" stroke-opacity="0.04" stroke-width="0.615388"/>
<rect x="272.002" y="61.5369" width="30.7694" height="30.7694" stroke="white" stroke-opacity="0.04" stroke-width="0.615388"/>
<rect x="302.772" y="61.5369" width="30.7694" height="30.7694" stroke="white" stroke-opacity="0.04" stroke-width="0.615388"/>
<rect x="333.541" y="61.5369" width="30.7694" height="30.7694" stroke="white" stroke-opacity="0.04" stroke-width="0.615388"/>
<rect x="364.311" y="61.5369" width="30.7694" height="30.7694" fill="white" fill-opacity="0.04" stroke="white" stroke-opacity="0.04" stroke-width="0.615388"/>
<rect x="-4.9223" y="92.3102" width="30.7694" height="30.7694" stroke="white" stroke-opacity="0.04" stroke-width="0.615388"/>
<rect x="25.8472" y="92.3102" width="30.7694" height="30.7694" stroke="white" stroke-opacity="0.04" stroke-width="0.615388"/>
<rect x="56.6166" y="92.3102" width="30.7694" height="30.7694" stroke="white" stroke-opacity="0.04" stroke-width="0.615388"/>
<rect x="87.386" y="92.3102" width="30.7694" height="30.7694" stroke="white" stroke-opacity="0.04" stroke-width="0.615388"/>
<rect x="118.155" y="92.3102" width="30.7694" height="30.7694" stroke="white" stroke-opacity="0.04" stroke-width="0.615388"/>
<rect x="148.925" y="92.3102" width="30.7694" height="30.7694" stroke="white" stroke-opacity="0.04" stroke-width="0.615388"/>
<rect x="179.694" y="92.3102" width="30.7694" height="30.7694" stroke="white" stroke-opacity="0.04" stroke-width="0.615388"/>
<rect x="210.464" y="92.3102" width="30.7694" height="30.7694" stroke="white" stroke-opacity="0.04" stroke-width="0.615388"/>
<rect x="241.233" y="92.3102" width="30.7694" height="30.7694" stroke="white" stroke-opacity="0.04" stroke-width="0.615388"/>
<rect x="272.002" y="92.3102" width="30.7694" height="30.7694" stroke="white" stroke-opacity="0.04" stroke-width="0.615388"/>
<rect x="302.772" y="92.3102" width="30.7694" height="30.7694" stroke="white" stroke-opacity="0.04" stroke-width="0.615388"/>
<rect x="333.541" y="92.3102" width="30.7694" height="30.7694" stroke="white" stroke-opacity="0.04" stroke-width="0.615388"/>
<rect x="364.311" y="92.3102" width="30.7694" height="30.7694" stroke="white" stroke-opacity="0.04" stroke-width="0.615388"/>
<rect x="-4.9223" y="123.074" width="30.7694" height="30.7694" stroke="white" stroke-opacity="0.04" stroke-width="0.615388"/>
<rect x="25.8472" y="123.074" width="30.7694" height="30.7694" stroke="white" stroke-opacity="0.04" stroke-width="0.615388"/>
<rect x="56.6166" y="123.074" width="30.7694" height="30.7694" stroke="white" stroke-opacity="0.04" stroke-width="0.615388"/>
<rect x="87.386" y="123.074" width="30.7694" height="30.7694" stroke="white" stroke-opacity="0.04" stroke-width="0.615388"/>
<rect x="118.155" y="123.074" width="30.7694" height="30.7694" stroke="white" stroke-opacity="0.04" stroke-width="0.615388"/>
<rect x="148.925" y="123.074" width="30.7694" height="30.7694" stroke="white" stroke-opacity="0.04" stroke-width="0.615388"/>
<rect x="179.694" y="123.074" width="30.7694" height="30.7694" stroke="white" stroke-opacity="0.04" stroke-width="0.615388"/>
<rect x="210.464" y="123.074" width="30.7694" height="30.7694" stroke="white" stroke-opacity="0.04" stroke-width="0.615388"/>
<rect x="241.233" y="123.074" width="30.7694" height="30.7694" fill="white" fill-opacity="0.04" stroke="white" stroke-opacity="0.04" stroke-width="0.615388"/>
<rect x="272.002" y="123.074" width="30.7694" height="30.7694" stroke="white" stroke-opacity="0.04" stroke-width="0.615388"/>
<rect x="302.772" y="123.074" width="30.7694" height="30.7694" stroke="white" stroke-opacity="0.04" stroke-width="0.615388"/>
<rect x="333.541" y="123.074" width="30.7694" height="30.7694" stroke="white" stroke-opacity="0.04" stroke-width="0.615388"/>
<rect x="364.311" y="123.074" width="30.7694" height="30.7694" stroke="white" stroke-opacity="0.04" stroke-width="0.615388"/>
<rect x="-4.9223" y="153.847" width="30.7694" height="30.7694" stroke="white" stroke-opacity="0.04" stroke-width="0.615388"/>
<rect x="25.8472" y="153.847" width="30.7694" height="30.7694" stroke="white" stroke-opacity="0.04" stroke-width="0.615388"/>
<rect x="56.6166" y="153.847" width="30.7694" height="30.7694" stroke="white" stroke-opacity="0.04" stroke-width="0.615388"/>
<rect x="87.386" y="153.847" width="30.7694" height="30.7694" stroke="white" stroke-opacity="0.04" stroke-width="0.615388"/>
<rect x="118.155" y="153.847" width="30.7694" height="30.7694" stroke="white" stroke-opacity="0.04" stroke-width="0.615388"/>
<rect x="148.925" y="153.847" width="30.7694" height="30.7694" stroke="white" stroke-opacity="0.04" stroke-width="0.615388"/>
<rect x="179.694" y="153.847" width="30.7694" height="30.7694" stroke="white" stroke-opacity="0.04" stroke-width="0.615388"/>
<rect x="210.464" y="153.847" width="30.7694" height="30.7694" stroke="white" stroke-opacity="0.04" stroke-width="0.615388"/>
<rect x="241.233" y="153.847" width="30.7694" height="30.7694" stroke="white" stroke-opacity="0.04" stroke-width="0.615388"/>
<rect x="272.002" y="153.847" width="30.7694" height="30.7694" stroke="white" stroke-opacity="0.04" stroke-width="0.615388"/>
<rect x="302.772" y="153.847" width="30.7694" height="30.7694" stroke="white" stroke-opacity="0.04" stroke-width="0.615388"/>
<rect x="333.541" y="153.847" width="30.7694" height="30.7694" stroke="white" stroke-opacity="0.04" stroke-width="0.615388"/>
<rect x="364.311" y="153.847" width="30.7694" height="30.7694" stroke="white" stroke-opacity="0.04" stroke-width="0.615388"/>
<rect x="-4.9223" y="184.62" width="30.7694" height="30.7694" stroke="white" stroke-opacity="0.04" stroke-width="0.615388"/>
<rect x="25.8472" y="184.62" width="30.7694" height="30.7694" stroke="white" stroke-opacity="0.04" stroke-width="0.615388"/>
<rect x="56.6166" y="184.62" width="30.7694" height="30.7694" stroke="white" stroke-opacity="0.04" stroke-width="0.615388"/>
<rect x="87.386" y="184.62" width="30.7694" height="30.7694" stroke="white" stroke-opacity="0.04" stroke-width="0.615388"/>
<rect x="118.155" y="184.62" width="30.7694" height="30.7694" stroke="white" stroke-opacity="0.04" stroke-width="0.615388"/>
<rect x="148.925" y="184.62" width="30.7694" height="30.7694" stroke="white" stroke-opacity="0.04" stroke-width="0.615388"/>
<rect x="179.694" y="184.62" width="30.7694" height="30.7694" stroke="white" stroke-opacity="0.04" stroke-width="0.615388"/>
<rect x="210.464" y="184.62" width="30.7694" height="30.7694" stroke="white" stroke-opacity="0.04" stroke-width="0.615388"/>
<rect x="241.233" y="184.62" width="30.7694" height="30.7694" stroke="white" stroke-opacity="0.04" stroke-width="0.615388"/>
<rect x="272.002" y="184.62" width="30.7694" height="30.7694" stroke="white" stroke-opacity="0.04" stroke-width="0.615388"/>
<rect x="302.772" y="184.62" width="30.7694" height="30.7694" stroke="white" stroke-opacity="0.04" stroke-width="0.615388"/>
<rect x="333.541" y="184.62" width="30.7694" height="30.7694" stroke="white" stroke-opacity="0.04" stroke-width="0.615388"/>
<rect x="364.311" y="184.62" width="30.7694" height="30.7694" stroke="white" stroke-opacity="0.04" stroke-width="0.615388"/>
<rect x="-4.9223" y="215.384" width="30.7694" height="30.7694" stroke="white" stroke-opacity="0.04" stroke-width="0.615388"/>
<rect x="25.8472" y="215.384" width="30.7694" height="30.7694" stroke="white" stroke-opacity="0.04" stroke-width="0.615388"/>
<rect x="56.6166" y="215.384" width="30.7694" height="30.7694" stroke="white" stroke-opacity="0.04" stroke-width="0.615388"/>
<rect x="87.386" y="215.384" width="30.7694" height="30.7694" stroke="white" stroke-opacity="0.04" stroke-width="0.615388"/>
<rect x="118.155" y="215.384" width="30.7694" height="30.7694" fill="white" fill-opacity="0.04" stroke="white" stroke-opacity="0.04" stroke-width="0.615388"/>
<rect x="148.925" y="215.384" width="30.7694" height="30.7694" stroke="white" stroke-opacity="0.04" stroke-width="0.615388"/>
<rect x="179.694" y="215.384" width="30.7694" height="30.7694" stroke="white" stroke-opacity="0.04" stroke-width="0.615388"/>
<rect x="210.464" y="215.384" width="30.7694" height="30.7694" stroke="white" stroke-opacity="0.04" stroke-width="0.615388"/>
<rect x="241.233" y="215.384" width="30.7694" height="30.7694" stroke="white" stroke-opacity="0.04" stroke-width="0.615388"/>
<rect x="272.002" y="215.384" width="30.7694" height="30.7694" stroke="white" stroke-opacity="0.04" stroke-width="0.615388"/>
<rect x="302.772" y="215.384" width="30.7694" height="30.7694" stroke="white" stroke-opacity="0.04" stroke-width="0.615388"/>
<rect x="333.541" y="215.384" width="30.7694" height="30.7694" stroke="white" stroke-opacity="0.04" stroke-width="0.615388"/>
<rect x="364.311" y="215.384" width="30.7694" height="30.7694" stroke="white" stroke-opacity="0.04" stroke-width="0.615388"/>
<rect x="-4.9223" y="246.157" width="30.7694" height="30.7694" fill="white" fill-opacity="0.04" stroke="white" stroke-opacity="0.04" stroke-width="0.615388"/>
<rect x="25.8472" y="246.157" width="30.7694" height="30.7694" stroke="white" stroke-opacity="0.04" stroke-width="0.615388"/>
<rect x="56.6166" y="246.157" width="30.7694" height="30.7694" stroke="white" stroke-opacity="0.04" stroke-width="0.615388"/>
<rect x="87.386" y="246.157" width="30.7694" height="30.7694" stroke="white" stroke-opacity="0.04" stroke-width="0.615388"/>
<rect x="118.155" y="246.157" width="30.7694" height="30.7694" stroke="white" stroke-opacity="0.04" stroke-width="0.615388"/>
<rect x="148.925" y="246.157" width="30.7694" height="30.7694" stroke="white" stroke-opacity="0.04" stroke-width="0.615388"/>
<rect x="179.694" y="246.157" width="30.7694" height="30.7694" stroke="white" stroke-opacity="0.04" stroke-width="0.615388"/>
<rect x="210.464" y="246.157" width="30.7694" height="30.7694" stroke="white" stroke-opacity="0.04" stroke-width="0.615388"/>
<rect x="241.233" y="246.157" width="30.7694" height="30.7694" stroke="white" stroke-opacity="0.04" stroke-width="0.615388"/>
<rect x="272.002" y="246.157" width="30.7694" height="30.7694" stroke="white" stroke-opacity="0.04" stroke-width="0.615388"/>
<rect x="302.772" y="246.157" width="30.7694" height="30.7694" stroke="white" stroke-opacity="0.04" stroke-width="0.615388"/>
<rect x="333.541" y="246.157" width="30.7694" height="30.7694" stroke="white" stroke-opacity="0.04" stroke-width="0.615388"/>
<rect x="364.311" y="246.157" width="30.7694" height="30.7694" stroke="white" stroke-opacity="0.04" stroke-width="0.615388"/>
<rect x="-4.9223" y="276.93" width="30.7694" height="30.7694" stroke="white" stroke-opacity="0.04" stroke-width="0.615388"/>
<rect x="25.8472" y="276.93" width="30.7694" height="30.7694" stroke="white" stroke-opacity="0.04" stroke-width="0.615388"/>
<rect x="56.6166" y="276.93" width="30.7694" height="30.7694" stroke="white" stroke-opacity="0.04" stroke-width="0.615388"/>
<rect x="87.386" y="276.93" width="30.7694" height="30.7694" stroke="white" stroke-opacity="0.04" stroke-width="0.615388"/>
<rect x="118.155" y="276.93" width="30.7694" height="30.7694" stroke="white" stroke-opacity="0.04" stroke-width="0.615388"/>
<rect x="148.925" y="276.93" width="30.7694" height="30.7694" stroke="white" stroke-opacity="0.04" stroke-width="0.615388"/>
<rect x="179.694" y="276.93" width="30.7694" height="30.7694" stroke="white" stroke-opacity="0.04" stroke-width="0.615388"/>
<rect x="210.464" y="276.93" width="30.7694" height="30.7694" stroke="white" stroke-opacity="0.04" stroke-width="0.615388"/>
<rect x="241.233" y="276.93" width="30.7694" height="30.7694" stroke="white" stroke-opacity="0.04" stroke-width="0.615388"/>
<rect x="272.002" y="276.93" width="30.7694" height="30.7694" stroke="white" stroke-opacity="0.04" stroke-width="0.615388"/>
<rect x="302.772" y="276.93" width="30.7694" height="30.7694" stroke="white" stroke-opacity="0.04" stroke-width="0.615388"/>
<rect x="333.541" y="276.93" width="30.7694" height="30.7694" stroke="white" stroke-opacity="0.04" stroke-width="0.615388"/>
<rect x="364.311" y="276.93" width="30.7694" height="30.7694" stroke="white" stroke-opacity="0.04" stroke-width="0.615388"/>
<rect x="-4.9223" y="307.692" width="30.7694" height="30.7694" stroke="white" stroke-opacity="0.04" stroke-width="0.615388"/>
<rect x="25.8472" y="307.692" width="30.7694" height="30.7694" stroke="white" stroke-opacity="0.04" stroke-width="0.615388"/>
<rect x="56.6166" y="307.692" width="30.7694" height="30.7694" stroke="white" stroke-opacity="0.04" stroke-width="0.615388"/>
<rect x="87.386" y="307.692" width="30.7694" height="30.7694" stroke="white" stroke-opacity="0.04" stroke-width="0.615388"/>
<rect x="118.155" y="307.692" width="30.7694" height="30.7694" stroke="white" stroke-opacity="0.04" stroke-width="0.615388"/>
<rect x="148.925" y="307.692" width="30.7694" height="30.7694" stroke="white" stroke-opacity="0.04" stroke-width="0.615388"/>
<rect x="179.694" y="307.692" width="30.7694" height="30.7694" stroke="white" stroke-opacity="0.04" stroke-width="0.615388"/>
<rect x="210.464" y="307.692" width="30.7694" height="30.7694" stroke="white" stroke-opacity="0.04" stroke-width="0.615388"/>
<rect x="241.233" y="307.692" width="30.7694" height="30.7694" stroke="white" stroke-opacity="0.04" stroke-width="0.615388"/>
<rect x="272.002" y="307.692" width="30.7694" height="30.7694" stroke="white" stroke-opacity="0.04" stroke-width="0.615388"/>
<rect x="302.772" y="307.692" width="30.7694" height="30.7694" stroke="white" stroke-opacity="0.04" stroke-width="0.615388"/>
<rect x="333.541" y="307.692" width="30.7694" height="30.7694" stroke="white" stroke-opacity="0.04" stroke-width="0.615388"/>
<rect x="364.311" y="307.692" width="30.7694" height="30.7694" stroke="white" stroke-opacity="0.04" stroke-width="0.615388"/>
<rect x="-4.9223" y="338.466" width="30.7694" height="30.7694" stroke="white" stroke-opacity="0.04" stroke-width="0.615388"/>
<rect x="25.8472" y="338.466" width="30.7694" height="30.7694" stroke="white" stroke-opacity="0.04" stroke-width="0.615388"/>
<rect x="56.6166" y="338.466" width="30.7694" height="30.7694" stroke="white" stroke-opacity="0.04" stroke-width="0.615388"/>
<rect x="87.386" y="338.466" width="30.7694" height="30.7694" stroke="white" stroke-opacity="0.04" stroke-width="0.615388"/>
<rect x="118.155" y="338.466" width="30.7694" height="30.7694" stroke="white" stroke-opacity="0.04" stroke-width="0.615388"/>
<rect x="148.925" y="338.466" width="30.7694" height="30.7694" stroke="white" stroke-opacity="0.04" stroke-width="0.615388"/>
<rect x="179.694" y="338.466" width="30.7694" height="30.7694" stroke="white" stroke-opacity="0.04" stroke-width="0.615388"/>
<rect x="210.464" y="338.466" width="30.7694" height="30.7694" stroke="white" stroke-opacity="0.04" stroke-width="0.615388"/>
<rect x="241.233" y="338.466" width="30.7694" height="30.7694" stroke="white" stroke-opacity="0.04" stroke-width="0.615388"/>
<rect x="272.002" y="338.466" width="30.7694" height="30.7694" stroke="white" stroke-opacity="0.04" stroke-width="0.615388"/>
<rect x="302.772" y="338.466" width="30.7694" height="30.7694" stroke="white" stroke-opacity="0.04" stroke-width="0.615388"/>
<rect x="333.541" y="338.466" width="30.7694" height="30.7694" stroke="white" stroke-opacity="0.04" stroke-width="0.615388"/>
<rect x="364.311" y="338.466" width="30.7694" height="30.7694" stroke="white" stroke-opacity="0.04" stroke-width="0.615388"/>
<rect x="-4.9223" y="369.231" width="30.7694" height="30.7694" stroke="white" stroke-opacity="0.04" stroke-width="0.615388"/>
<rect x="25.8472" y="369.231" width="30.7694" height="30.7694" stroke="white" stroke-opacity="0.04" stroke-width="0.615388"/>
<rect x="56.6166" y="369.231" width="30.7694" height="30.7694" stroke="white" stroke-opacity="0.04" stroke-width="0.615388"/>
<rect x="87.386" y="369.231" width="30.7694" height="30.7694" stroke="white" stroke-opacity="0.04" stroke-width="0.615388"/>
<rect x="118.155" y="369.231" width="30.7694" height="30.7694" stroke="white" stroke-opacity="0.04" stroke-width="0.615388"/>
<rect x="148.925" y="369.231" width="30.7694" height="30.7694" stroke="white" stroke-opacity="0.04" stroke-width="0.615388"/>
<rect x="179.694" y="369.231" width="30.7694" height="30.7694" stroke="white" stroke-opacity="0.04" stroke-width="0.615388"/>
<rect x="210.464" y="369.231" width="30.7694" height="30.7694" stroke="white" stroke-opacity="0.04" stroke-width="0.615388"/>
<rect x="241.233" y="369.231" width="30.7694" height="30.7694" stroke="white" stroke-opacity="0.04" stroke-width="0.615388"/>
<rect x="272.002" y="369.231" width="30.7694" height="30.7694" stroke="white" stroke-opacity="0.04" stroke-width="0.615388"/>
<rect x="302.772" y="369.231" width="30.7694" height="30.7694" stroke="white" stroke-opacity="0.04" stroke-width="0.615388"/>
<rect x="333.541" y="369.231" width="30.7694" height="30.7694" stroke="white" stroke-opacity="0.04" stroke-width="0.615388"/>
<rect x="364.311" y="369.231" width="30.7694" height="30.7694" stroke="white" stroke-opacity="0.04" stroke-width="0.615388"/>
</mask>
<g mask="url(#mask0_5153_3429)">
<ellipse cx="195.125" cy="200" rx="323.125" ry="200" fill="url(#paint0_radial_5153_3429)"/>
</g>
<defs>
<radialGradient id="paint0_radial_5153_3429" cx="0" cy="0" r="1" gradientUnits="userSpaceOnUse" gradientTransform="translate(195.125 200) rotate(90) scale(200 323.125)">
<stop stop-color="white"/>
<stop offset="1"/>
</radialGradient>
</defs>
</svg>
